<?xml version="1.0" standalone="no"?>
<!DOCTYPE svg PUBLIC "-//W3C//DTD SVG 20010904//EN"
 "http://www.w3.org/TR/2001/REC-SVG-20010904/DTD/svg10.dtd">
<svg version="1.0" xmlns="http://www.w3.org/2000/svg"
 width="300.000000pt" height="71.000000pt" viewBox="0 0 300.000000 71.000000"
 preserveAspectRatio="xMidYMid meet">
<metadata>
Created by potrace 1.10, written by Peter Selinger 2001-2011
</metadata>
<g transform="translate(0.000000,71.000000) scale(0.100000,-0.100000)"
fill="#000000" stroke="none">
<path d="M292 700 c-108 -23 -223 -123 -262 -228 -23 -60 -30 -175 -16 -240
l8 -32 84 76 c83 76 85 76 105 58 20 -18 21 -17 97 64 l77 83 73 -81 74 -80
30 21 c25 18 32 19 42 8 7 -8 39 -44 70 -81 32 -38 62 -68 66 -68 4 0 13 28
20 62 35 161 -60 343 -214 414 -61 28 -182 39 -254 24z m146 -67 l3 -43 -55 0
-56 0 0 38 c0 21 3 42 7 46 4 4 28 6 53 4 l45 -3 3 -42z m-118 29 c0 -5 -26
-19 -57 -32 -126 -52 -207 -176 -202 -309 2 -46 -1 -66 -11 -69 -10 -4 -12 15
-8 89 5 108 23 152 91 227 52 56 187 124 187 94z m217 -22 c71 -35 136 -102
166 -168 16 -35 21 -68 21 -129 1 -107 -14 -113 -17 -8 -2 65 -8 91 -30 137
-34 69 -98 128 -173 159 -30 13 -54 26 -54 31 0 15 26 8 87 -22z m34 -91 c43
-34 99 -137 99 -181 l0 -30 -32 27 c-26 22 -38 26 -68 21 -33 -5 -40 -2 -89
48 l-53 54 27 55 c25 53 28 55 52 46 14 -5 43 -23 64 -40z m-253 -11 l22 -52
-55 -56 c-46 -46 -61 -56 -83 -53 -18 3 -39 -4 -62 -22 -35 -26 -35 -26 -38
-4 -10 63 40 158 109 209 61 44 79 40 107 -22z m112 36 c0 -8 -40 -74 -44 -74
-2 0 -15 18 -30 40 l-26 40 50 0 c27 0 50 -3 50 -6z"/>
<path d="M950 355 l0 -185 36 0 36 0 -4 135 c-1 74 -1 135 2 135 3 -1 30 -37
60 -80 30 -44 58 -80 62 -80 4 0 33 36 65 79 32 44 60 80 63 80 3 1 4 -60 2
-134 l-4 -135 36 0 36 0 0 185 0 185 -40 0 c-38 0 -43 -4 -88 -66 -26 -37 -52
-73 -57 -81 -9 -11 -22 2 -68 66 -56 78 -60 81 -98 81 l-39 0 0 -185z"/>
<path d="M2740 355 l0 -185 30 0 30 0 0 185 0 185 -30 0 -30 0 0 -185z"/>
<path d="M2282 501 l23 -29 23 21 c32 30 28 37 -24 37 l-46 0 24 -29z"/>
<path d="M2102 503 c-21 -4 -23 -9 -18 -39 7 -33 6 -34 -24 -34 -25 0 -30 -4
-30 -25 0 -21 5 -25 28 -25 l28 0 -1 -81 c0 -76 2 -82 28 -105 28 -24 100 -34
111 -16 13 22 -7 51 -38 54 l-31 3 -3 73 -3 72 36 0 c31 0 35 3 35 25 0 22 -4
25 -35 25 -34 0 -35 1 -35 40 0 41 -1 42 -48 33z"/>
<path d="M1490 429 c-41 -17 -69 -50 -77 -88 -20 -100 33 -171 128 -171 173 0
184 248 12 266 -21 2 -49 -1 -63 -7z m100 -69 c25 -25 27 -86 3 -112 -25 -28
-88 -24 -109 7 -20 31 -13 91 13 111 26 20 70 17 93 -6z"/>
<path d="M1827 420 c-31 -17 -37 -17 -37 -5 0 10 -10 15 -30 15 l-30 0 0 -130
0 -130 35 0 35 0 0 89 c0 82 2 91 22 105 28 20 58 20 84 2 16 -12 20 -29 22
-105 l4 -91 29 0 29 0 0 90 c0 107 -15 145 -65 166 -45 18 -53 18 -98 -6z"/>
<path d="M2507 420 c-31 -17 -37 -17 -37 -5 0 10 -10 15 -30 15 l-30 0 0 -131
0 -130 33 3 32 3 0 83 c0 76 2 86 24 103 24 19 57 24 77 11 25 -16 35 -56 33
-125 l-2 -72 31 -3 32 -3 0 86 c0 107 -16 150 -64 170 -46 19 -54 19 -99 -5z"/>
<path d="M2936 431 c-32 -5 -46 -16 -84 -63 -51 -65 -52 -59 31 -151 38 -43
47 -48 79 -45 l37 3 -61 68 -61 68 25 27 c60 65 78 87 78 94 0 5 -1 7 -2 7 -2
-1 -20 -5 -42 -8z"/>
<path d="M301 361 c-54 -61 -64 -81 -40 -81 5 0 31 34 59 75 28 41 49 75 46
75 -2 0 -31 -31 -65 -69z"/>
<path d="M2280 300 l0 -130 30 0 30 0 0 130 0 130 -30 0 -30 0 0 -130z"/>
<path d="M103 247 c-39 -34 -72 -65 -72 -68 -1 -3 5 -13 12 -23 11 -15 15 -13
43 26 17 24 45 62 63 86 17 23 30 42 29 41 -2 0 -35 -28 -75 -62z"/>
<path d="M480 209 c-47 -4 -115 -15 -153 -24 -77 -18 -235 -73 -242 -84 -2 -5
6 -18 19 -30 l23 -22 44 26 c108 62 313 125 399 124 43 -1 42 -2 -24 -15 -38
-7 -98 -23 -135 -35 -77 -25 -261 -109 -261 -119 0 -4 11 -12 24 -18 21 -9 31
-6 73 20 129 83 329 157 427 159 31 0 36 2 21 8 -34 13 -126 18 -215 10z"/>
</g>
</svg>
